<svg xmlns="http://www.w3.org/2000/svg" xmlns:xlink="http://www.w3.org/1999/xlink" width="139.788" height="61.637" viewBox="0 0 139.788 61.637">
  <defs>
    <clipPath id="clip-path">
      <rect id="Rectangle_16" data-name="Rectangle 16" width="139.788" height="61.637" fill="none"/>
    </clipPath>
  </defs>
  <g id="Group_31" data-name="Group 31" transform="translate(0 0)">
    <g id="Group_30" data-name="Group 30" transform="translate(0 0)" clip-path="url(#clip-path)">
      <path id="Path_2469" data-name="Path 2469" d="M275.2,87.384a17.968,17.968,0,0,1-.463,6.112,18.728,18.728,0,0,1-5.927,9.446,22.393,22.393,0,0,1,.833-5.927,22.994,22.994,0,0,1,5.557-9.631" transform="translate(-137.508 -44.701)" fill="#e6d3c8"/>
      <path id="Path_2470" data-name="Path 2470" d="M12.24,1.117A14.848,14.848,0,0,0,5.819,4.08C.763,8.187-1.1,15.708.633,23.467q3.153-5.911,6.3-11.977,2.7-5.216,5.309-10.372" transform="translate(0 -0.571)" fill="#e6d3c8"/>
      <path id="Path_2471" data-name="Path 2471" d="M122.034,66.876l-105.353-.87A14.372,14.372,0,0,1,3.015,53.366L.4,25.788c-.806-8.5,5.108-15.631,13.294-15.53l110.046.37c8.437.1,14.778,7.552,14.143,16.227l-2.054,28.068a13.2,13.2,0,0,1-13.8,11.952" transform="translate(-0.167 -5.247)" fill="#e6d3c8"/>
      <path id="Path_2472" data-name="Path 2472" d="M126.187,56.62l-105.353-.87A14.372,14.372,0,0,1,7.168,43.11L4.553,15.532C3.747,7.029,9.661-.1,17.847,0l110.046.37c8.436.1,14.778,7.552,14.143,16.228l-2.054,28.068a13.2,13.2,0,0,1-13.8,11.952" transform="translate(-2.292 0)" fill="#f5ece6"/>
      <path id="Path_2473" data-name="Path 2473" d="M129.775,56.9,29.694,56.211A11.383,11.383,0,0,1,18.87,46.2L16.8,24.358c-.638-6.735,4.045-12.38,10.529-12.3l103.8.293c6.682.083,11.7,5.982,11.2,12.853L140.7,47.434A10.454,10.454,0,0,1,129.775,56.9" transform="translate(-8.564 -6.168)" fill="#ff081f"/>
      <path id="Path_2474" data-name="Path 2474" d="M244.437,90.156c-.138-.964-3.526-1.338-5.927-1.235-4.008.173-8.514,1.818-8.4,2.963.12,1.17,5.087,2.043,9.384.988,2.2-.541,5.071-1.8,4.939-2.717" transform="translate(-117.713 -45.479)" fill="#ff7380"/>
      <path id="Path_2475" data-name="Path 2475" d="M66.281,54.131a.283.283,0,0,1,.048.4,7.6,7.6,0,1,1-.013-9.521.282.282,0,0,1-.047.4l-2.8,2.22a.28.28,0,0,1-.383-.03,3.751,3.751,0,0,0-2.707-1.3,3.476,3.476,0,1,0,0,6.952A3.75,3.75,0,0,0,63.1,51.941a.28.28,0,0,1,.385-.031Z" transform="translate(-26.981 -21.578)" fill="#fff"/>
      <path id="Path_2476" data-name="Path 2476" d="M95.405,49.776a7.7,7.7,0,1,1-7.7-7.595,7.649,7.649,0,0,1,7.7,7.595m-4.177,0A3.526,3.526,0,1,0,87.7,53.252a3.5,3.5,0,0,0,3.526-3.476" transform="translate(-40.923 -21.578)" fill="#fff"/>
      <path id="Path_2477" data-name="Path 2477" d="M122.19,42.626h3.517a.284.284,0,0,1,.284.284V56.886a.284.284,0,0,1-.284.284h-3.633a.283.283,0,0,1-.248-.144l-4.561-8.058v7.919a.284.284,0,0,1-.284.284h-3.515a.284.284,0,0,1-.284-.284V42.91a.283.283,0,0,1,.284-.284h3.642a.279.279,0,0,1,.24.133l4.56,7.344V42.91a.283.283,0,0,1,.283-.284" transform="translate(-57.898 -21.805)" fill="#fff"/>
      <path id="Path_2478" data-name="Path 2478" d="M150.04,42.626h3.517a.284.284,0,0,1,.284.284V56.886a.284.284,0,0,1-.284.284h-3.633a.283.283,0,0,1-.248-.144l-4.561-8.058v7.919a.284.284,0,0,1-.284.284h-3.515a.284.284,0,0,1-.284-.284V42.91a.283.283,0,0,1,.284-.284h3.642a.279.279,0,0,1,.24.133l4.56,7.344V42.91a.283.283,0,0,1,.283-.284" transform="translate(-72.145 -21.805)" fill="#fff"/>
      <path id="Path_2479" data-name="Path 2479" d="M168.883,56.887V42.91a.284.284,0,0,1,.284-.284h8.547a.284.284,0,0,1,.283.284v2.9a.284.284,0,0,1-.283.284h-4.749v2.068h4.1a.285.285,0,0,1,.284.284v2.9a.284.284,0,0,1-.284.284h-4.1V53.7h4.749a.284.284,0,0,1,.283.284v2.9a.284.284,0,0,1-.283.284h-8.547a.284.284,0,0,1-.284-.284" transform="translate(-86.392 -21.805)" fill="#fff"/>
      <path id="Path_2480" data-name="Path 2480" d="M201.484,54.131a.283.283,0,0,1,.048.4,7.6,7.6,0,1,1-.013-9.521.282.282,0,0,1-.047.4l-2.8,2.22a.28.28,0,0,1-.383-.03,3.751,3.751,0,0,0-2.707-1.3,3.476,3.476,0,1,0,0,6.952,3.75,3.75,0,0,0,2.719-1.311.28.28,0,0,1,.385-.031Z" transform="translate(-96.144 -21.578)" fill="#fff"/>
      <path id="Path_2481" data-name="Path 2481" d="M228.561,45.808a.284.284,0,0,1-.284.284h-3.192v10.8a.284.284,0,0,1-.284.284h-3.516a.284.284,0,0,1-.284-.284v-10.8h-3.192a.284.284,0,0,1-.284-.284v-2.9a.283.283,0,0,1,.284-.284h10.468a.284.284,0,0,1,.283.284Z" transform="translate(-111.275 -21.805)" fill="#fff"/>
    </g>
  </g>
</svg>
